<svg id="vid_buttons.svg" xmlns="http://www.w3.org/2000/svg" xmlns:xlink="http://www.w3.org/1999/xlink" width="180" height="110" viewBox="0 0 180 110">
	<defs>
		<style>
			.cls-1,
			.cls-2,
			.cls-5,
			.cls-7 {
				fill-rule: evenodd;
			}
			
			.cls-2,
			.cls-4,
			.cls-5 {
				fill: #fff;
			}
			
			.cls-7 {
			fill: #3e4040;
			}
			
			.cls-3 {
				filter: url(#filter);
			}
			
			.cls-5,
			.cls-6 {
			stroke: #fff;
				stroke-width: 1px;
			}
			
			.cls-6 {
				fill: none;
				opacity: 0.17;
			}

		</style>
		<filter id="filter" filterUnits="userSpaceOnUse">
			<feOffset result="offset" in="SourceAlpha" />
			<feGaussianBlur result="blur" stdDeviation="1" />
			<feFlood result="flood" />
			<feComposite result="composite" operator="in" in2="blur" />
			<feBlend result="blend" in="SourceGraphic" />
		</filter>
	</defs>
	<g id="replay">
		<path class="cls-7" d="M16.741,93.563q-0.309.184-.495,0.307L15.937,99.7l2.412-1.227a5.365,5.365,0,0,1-1.732,3.987,5.417,5.417,0,0,1-4.02,1.717,5.339,5.339,0,0,1-4.02-1.717H8.516a5.426,5.426,0,0,1-1.67-3.987,5.179,5.179,0,0,1,1.67-3.925l0.062-.061a5.438,5.438,0,0,1,4.02-1.656,4.155,4.155,0,0,1,1.608.307,0.98,0.98,0,0,0,.742,0,0.919,0.919,0,0,0,.495-0.552,0.807,0.807,0,0,0,0-.675,0.922,0.922,0,0,0-.556-0.491,6,6,0,0,0-2.288-.429A7.342,7.342,0,0,0,7.217,93.2h0A7,7,0,0,0,4.99,98.47a7.154,7.154,0,0,0,2.226,5.275h0a7.2,7.2,0,0,0,5.38,2.269,7.177,7.177,0,0,0,5.318-2.269A7.061,7.061,0,0,0,20.2,98.47V98.1a0.763,0.763,0,0,0-.186-0.491l1.175-.552,0.8-.552-0.8-.368Z" />
	</g>
	<g id="CLICK_FOR_SOUND" data-name="CLICK FOR SOUND">
		<path id="CLICK_FOR_SOUND-2" data-name="CLICK FOR SOUND" class="cls-2" d="M40.445,65.976a6.748,6.748,0,0,0-1.775-.885,6.278,6.278,0,0,0-1.924-.293,6.467,6.467,0,0,0-2.385.433,5.857,5.857,0,0,0-3.256,3.213,6.436,6.436,0,0,0,0,4.727,5.709,5.709,0,0,0,3.245,3.194,7.07,7.07,0,0,0,4.343.164,5.5,5.5,0,0,0,1.634-.8v-2.1a6.138,6.138,0,0,1-1.763,1.084,5.272,5.272,0,0,1-1.935.359,3.823,3.823,0,0,1-2.889-1.2,4.668,4.668,0,0,1,.031-6.162,4.086,4.086,0,0,1,3.053-1.2,5.146,5.146,0,0,1,1.849.335,5.733,5.733,0,0,1,1.669,1.006ZM49.036,76.49V74.829h-4.16V65.071H43.015V76.49h6.021Zm3.675,0V65.071H50.85V76.49h1.861Zm12.31-10.514a6.748,6.748,0,0,0-1.775-.885,6.277,6.277,0,0,0-1.923-.293,6.467,6.467,0,0,0-2.385.433,5.857,5.857,0,0,0-3.257,3.213,6.436,6.436,0,0,0,0,4.727,5.709,5.709,0,0,0,3.245,3.194,7.07,7.07,0,0,0,4.343.164,5.5,5.5,0,0,0,1.634-.8v-2.1a6.138,6.138,0,0,1-1.763,1.084,5.272,5.272,0,0,1-1.935.359,3.822,3.822,0,0,1-2.889-1.2,4.668,4.668,0,0,1,.031-6.162,4.086,4.086,0,0,1,3.053-1.2,5.146,5.146,0,0,1,1.849.335,5.733,5.733,0,0,1,1.669,1.006ZM69.452,76.49V70.656L73.98,76.49h2.4l-5.074-6.341,4.535-5.078H73.565L69.452,69.8V65.071H67.591V76.49h1.861Zm15.243,0V71.124h4.527v-1.63H84.695V66.647h4.527V65.071H82.834V76.49h1.861ZM101,72.438a4.278,4.278,0,0,1-.911,1.385,4.2,4.2,0,0,1-1.356.928,4.035,4.035,0,0,1-1.591.32,4.077,4.077,0,0,1-2.963-1.248,4.234,4.234,0,0,1-.907-1.381,4.319,4.319,0,0,1-.313-1.638,4.4,4.4,0,0,1,.313-1.653,4.15,4.15,0,0,1,3.87-2.629,4.064,4.064,0,0,1,2.948,1.248A4.269,4.269,0,0,1,101,69.159a4.335,4.335,0,0,1,.317,1.646A4.285,4.285,0,0,1,101,72.438Zm1.8-3.931a6,6,0,0,0-1.334-1.954,6.066,6.066,0,0,0-1.982-1.295,6.42,6.42,0,0,0-4.7,0A6.066,6.066,0,0,0,92.8,66.553a6.005,6.005,0,0,0-1.329,6.56A5.812,5.812,0,0,0,92.8,75.039a6.075,6.075,0,0,0,1.982,1.3,6.2,6.2,0,0,0,2.357.456,6.117,6.117,0,0,0,2.33-.452,6.256,6.256,0,0,0,1.993-1.3A5.934,5.934,0,0,0,102.794,68.507Zm4.782-1.845h0.336a3.428,3.428,0,0,1,1.928.386,1.553,1.553,0,0,1,.52,1.33,1.391,1.391,0,0,1-.485,1.217,3.76,3.76,0,0,1-1.963.343h-0.336V66.663Zm0.094,4.719,3.808,5.109h2.1L109.64,71.3a2.927,2.927,0,0,0,1.963-.932,3.2,3.2,0,0,0,.665-2.149,3.511,3.511,0,0,0-.29-1.435,2.713,2.713,0,0,0-.821-1.069,2.781,2.781,0,0,0-1.075-.491,8.159,8.159,0,0,0-1.771-.148h-2.6V76.49h1.744V71.381h0.211Zm12.893,4.742a4.013,4.013,0,0,0,2.4.671,3.9,3.9,0,0,0,2.767-.955,3.355,3.355,0,0,0,1.025-2.578,2.769,2.769,0,0,0-.634-1.86,6.9,6.9,0,0,0-2.33-1.525l-0.234-.109q-1.94-.889-1.939-1.919a1.325,1.325,0,0,1,.441-1.045,1.739,1.739,0,0,1,1.193-.39,1.778,1.778,0,0,1,.942.25,2.424,2.424,0,0,1,.755.788L126.4,66.7a2.573,2.573,0,0,0-1.181-1.4,4.214,4.214,0,0,0-2.119-.488,3.552,3.552,0,0,0-2.49.866,2.918,2.918,0,0,0-.95,2.262,2.729,2.729,0,0,0,.629,1.821,8.08,8.08,0,0,0,2.522,1.665q0.124,0.055.36,0.172,1.672,0.788,1.673,1.794a1.612,1.612,0,0,1-.489,1.232,1.843,1.843,0,0,1-1.317.46,2.417,2.417,0,0,1-1.439-.4,2.045,2.045,0,0,1-.774-1.166l-1.486.686A3.136,3.136,0,0,0,120.563,76.124Zm17.851-3.685a4.278,4.278,0,0,1-.911,1.385,4.2,4.2,0,0,1-1.357.928,4.032,4.032,0,0,1-1.591.32,4.078,4.078,0,0,1-2.963-1.248,4.231,4.231,0,0,1-.907-1.381,4.312,4.312,0,0,1-.313-1.638,4.392,4.392,0,0,1,.313-1.653,4.151,4.151,0,0,1,3.87-2.629A4.066,4.066,0,0,1,137.5,67.77a4.269,4.269,0,0,1,.911,1.388,4.335,4.335,0,0,1,.317,1.646A4.285,4.285,0,0,1,138.414,72.438Zm1.8-3.931a6,6,0,0,0-1.333-1.954,6.075,6.075,0,0,0-1.982-1.295,6.42,6.42,0,0,0-4.695,0,6.07,6.07,0,0,0-1.986,1.295,6,6,0,0,0-1.329,6.56,5.8,5.8,0,0,0,1.329,1.927,6.071,6.071,0,0,0,1.982,1.3,6.2,6.2,0,0,0,2.357.456,6.112,6.112,0,0,0,2.33-.452,6.263,6.263,0,0,0,1.994-1.3A5.931,5.931,0,0,0,140.212,68.507Zm2.864,3.67a4.671,4.671,0,0,0,1.165,3.471,6,6,0,0,0,7.061,0,4.659,4.659,0,0,0,1.172-3.467V65.071h-1.86v6.934a3.318,3.318,0,0,1-.716,2.32,3.323,3.323,0,0,1-4.269,0,3.318,3.318,0,0,1-.715-2.32V65.071h-1.838v7.106ZM157.2,76.49V68.55q0.251,0.351.528,0.671c0.185,0.213.376,0.416,0.575,0.608l7.42,7.106V65.071H164v7.917c-0.225-.281-0.438-0.533-0.642-0.757s-0.4-.434-0.6-0.632l-7.271-6.981V76.49H157.2Zm13.458-9.757H172a9.4,9.4,0,0,1,2.115.172,2.9,2.9,0,0,1,1.162.577,3.437,3.437,0,0,1,.973,1.377,5.8,5.8,0,0,1,0,3.83,3.435,3.435,0,0,1-.973,1.377,2.826,2.826,0,0,1-1.122.577,8.1,8.1,0,0,1-1.936.172h-1.563v-8.08Zm0.649,9.757h0.5a13.117,13.117,0,0,0,2.983-.246,4.673,4.673,0,0,0,1.708-.823,4.846,4.846,0,0,0,1.5-1.938,6.673,6.673,0,0,0,.513-2.695A6.757,6.757,0,0,0,178,68.082a4.772,4.772,0,0,0-1.5-1.942,4.656,4.656,0,0,0-1.747-.823,16.435,16.435,0,0,0-3.444-.246H168.8V76.49h2.51Z" />
		<g id="soundOn_copy" data-name="soundOn copy">
			<path class="cls-2" d="M21.507,66.219a2.465,2.465,0,0,0-1.451-1.079V66.9a2.9,2.9,0,0,1,.55.568,3.965,3.965,0,0,1,1.151,2.952A4.151,4.151,0,0,1,20.606,73.6l-0.55.625v1.7a4.607,4.607,0,0,0,1.451-1.363,5.791,5.791,0,0,0,1.5-4.145,6.55,6.55,0,0,0-1.5-4.2m-2.451,1.249A1.883,1.883,0,0,0,18,66.73v1.249a5.154,5.154,0,0,1,.4.4,2.756,2.756,0,0,1,.8,2.044,2.682,2.682,0,0,1-.8,2.158l-0.4.454v1.192a3.34,3.34,0,0,0,1.051-.908,4.354,4.354,0,0,0,1-2.9A4.887,4.887,0,0,0,19.055,67.468Z" />
			<path class="cls-2" d="M15.641,61H14.673L8.158,67.5H4.988v5.076H8.158l6.6,6.412h0.88V61Z" />
		</g>
	</g>
	<g id="pause" class="cls-3">
		<rect class="cls-4" x="35" y="7" width="4" height="15" />
		<rect id="Rectangle_1_copy" data-name="Rectangle 1 copy" class="cls-4" x="41" y="7" width="4" height="15" />
	</g>
	<g id="play" class="cls-3">
		<path id="Rectangle_1_copy_2" data-name="Rectangle 1 copy 2" class="cls-2" d="M46,42L36,51V33" />
	</g>
	<g id="soundOn" class="cls-3">
		<path class="cls-2" d="M21.507,38.219a2.464,2.464,0,0,0-1.451-1.079V38.9a2.9,2.9,0,0,1,.55.568,3.965,3.965,0,0,1,1.151,2.952A4.151,4.151,0,0,1,20.606,45.6l-0.55.625v1.7a4.607,4.607,0,0,0,1.451-1.363,5.791,5.791,0,0,0,1.5-4.145,6.55,6.55,0,0,0-1.5-4.2m-2.451,1.249A1.883,1.883,0,0,0,18,38.73v1.249a5.172,5.172,0,0,1,.4.4,2.756,2.756,0,0,1,.8,2.044,2.682,2.682,0,0,1-.8,2.157l-0.4.454v1.192a3.34,3.34,0,0,0,1.051-.908,4.354,4.354,0,0,0,1-2.9A4.887,4.887,0,0,0,19.055,39.468Z" />
		<path class="cls-2" d="M15.641,33H14.673L8.158,39.5H4.988v5.077H8.158l6.6,6.412h0.88V33Z" />
	</g>
	<g id="soundOff" class="cls-3">
		<path id="speaker" class="cls-2" d="M11.784,20.086l3.043,2.872h0.895V15.148l-3.937,4.939M15.721,5H14.715l-6.54,6.51H4.988v5.051H8.174l0.615,0.561,6.932-6.9V5Z" />
		<path id="line" class="cls-5" d="M22,6.954L6.243,23" />
	</g>
	<rect class="cls-6" width="180" height="110" />
</svg>
